<svg width="13" height="11" viewBox="0 0 13 11" fill="none" xmlns="http://www.w3.org/2000/svg">
<path d="M9.34911 7.66633C8.85969 7.56414 8.40967 7.37422 8.01293 7.10313C7.82055 6.967 7.54612 6.98363 7.34326 7.12794L6.18115 7.73944C5.35956 6.87524 4.95209 5.96011 4.80219 4.6405L5.80196 3.745C6.0326 3.58395 6.18603 3.30976 6.20238 3.02637C6.22689 2.45734 6.33442 1.87732 6.52214 1.30304C6.65483 0.897106 6.48178 0.508097 6.13642 0.435984L4.67485 0.130795C4.32949 0.0586819 3.94048 0.330327 3.80779 0.736258C2.25965 5.47236 4.27849 10.0105 8.30782 10.8519C8.65317 10.924 9.04218 10.6523 9.17487 10.2464L9.73483 8.53339C9.86752 8.12746 9.69447 7.73845 9.34911 7.66633Z" fill="#FF7B5B"/>
</svg>
